<?xml version="1.0" encoding="UTF-8"?>
<svg id="Capa_1" data-name="Capa 1" xmlns="http://www.w3.org/2000/svg" viewBox="0 0 800 800">
  <defs>
    <style>
      .cls-1 {
        fill: #647d99;
      }
    </style>
  </defs>
  <path class="cls-1" d="M682.84,117.16C607.29,41.61,506.84,0,400,0S192.71,41.61,117.16,117.16C41.61,192.71,0,293.16,0,400s41.61,207.29,117.16,282.84c75.55,75.55,176,117.16,282.84,117.16s207.29-41.61,282.84-117.16c75.55-75.55,117.16-176,117.16-282.84s-41.61-207.29-117.16-282.84ZM400,773.63c-206.02,0-373.63-167.61-373.63-373.63S193.98,26.37,400,26.37s373.63,167.61,373.63,373.63-167.61,373.63-373.63,373.63Z"/>
  <path class="cls-1" d="M718.19,505.52c-31.79-14.53-70.81-26.44-114.78-35.37,2.1-22.99,3.19-46.46,3.19-70.16s-1.09-47.17-3.19-70.16c43.98-8.93,82.99-20.83,114.78-35.37,6.62-3.03,9.54-10.85,6.51-17.48-3.03-6.62-10.85-9.54-17.48-6.51-29.08,13.29-65.52,24.39-106.73,32.87-5.59-43.77-14.89-85.35-27.46-122.89,16.21-7.8,31.96-16.7,47.12-26.72,6.08-4.01,7.75-12.2,3.73-18.27s-12.2-7.75-18.27-3.73c-13.42,8.87-27.33,16.81-41.64,23.82-11.5-29.21-25.09-55.44-40.56-77.62-4.16-5.97-12.38-7.44-18.36-3.28-5.97,4.17-7.44,12.38-3.28,18.36,14.54,20.85,27.32,45.62,38.15,73.27-40.14,16.23-82.94,25.36-126.74,26.89V65.93c0-7.28-5.9-13.19-13.19-13.19s-13.19,5.9-13.19,13.19v127.24c-43.8-1.53-86.6-10.65-126.74-26.89,10.82-27.65,23.61-52.41,38.15-73.27,4.17-5.97,2.7-14.19-3.28-18.36-5.98-4.17-14.19-2.7-18.36,3.28-15.46,22.18-29.06,48.41-40.56,77.62-14.31-7-28.22-14.95-41.64-23.82-6.07-4.01-14.26-2.34-18.27,3.73-4.01,6.08-2.34,14.26,3.73,18.27,15.16,10.01,30.9,18.92,47.12,26.72-12.57,37.54-21.87,79.12-27.46,122.89-41.21-8.47-77.65-19.57-106.73-32.87-6.62-3.03-14.45-.11-17.48,6.51s-.11,14.45,6.51,17.48c31.79,14.53,70.81,26.44,114.78,35.37-2.1,22.99-3.19,46.46-3.19,70.16s1.09,47.17,3.19,70.16c-43.98,8.93-82.99,20.83-114.78,35.37-6.62,3.03-9.54,10.85-6.51,17.48,3.03,6.62,10.85,9.54,17.48,6.51,29.08-13.29,65.52-24.39,106.73-32.87,5.59,43.77,14.89,85.35,27.46,122.89-16.21,7.8-31.95,16.7-47.12,26.72-6.08,4.01-7.75,12.2-3.73,18.27,4.01,6.08,12.2,7.75,18.27,3.73,13.42-8.87,27.33-16.81,41.64-23.82,11.5,29.21,25.09,55.44,40.56,77.62,2.56,3.68,6.66,5.65,10.83,5.65,2.6,0,5.23-.77,7.53-2.37,5.97-4.17,7.44-12.38,3.28-18.36-14.54-20.86-27.32-45.62-38.15-73.27,40.14-16.23,82.94-25.36,126.74-26.89v127.24c0,7.28,5.9,13.19,13.19,13.19s13.19-5.9,13.19-13.19v-127.24c43.8,1.53,86.6,10.65,126.74,26.89-10.82,27.65-23.61,52.41-38.15,73.27-4.17,5.97-2.7,14.19,3.28,18.36,2.3,1.6,4.93,2.37,7.53,2.37,4.17,0,8.27-1.97,10.83-5.65,15.46-22.18,29.06-48.41,40.56-77.62,14.31,7,28.22,14.95,41.64,23.82,2.24,1.48,4.76,2.19,7.26,2.19,4.28,0,8.48-2.08,11.02-5.92,4.01-6.08,2.34-14.26-3.73-18.27-15.16-10.01-30.9-18.92-47.12-26.72,12.57-37.54,21.87-79.12,27.46-122.89,41.21,8.47,77.65,19.57,106.73,32.87,1.78,.81,3.64,1.2,5.47,1.2,5,0,9.79-2.86,12-7.71,3.03-6.63,.11-14.45-6.51-17.48Zm-137.97-105.52c0,22.08-.98,43.92-2.85,65.31-50.24-8.5-105.94-13.32-164.18-13.95v-102.72c58.24-.63,113.95-5.45,164.18-13.95,1.87,21.39,2.85,43.23,2.85,65.31Zm-31.35-208.88c11.77,35.7,20.49,75.32,25.7,117.1-49.47,8.48-104.55,13.37-161.38,14.03v-102.71c46.88-1.52,92.69-11.17,135.68-28.43Zm-297.74,0c42.99,17.26,88.8,26.9,135.68,28.43v102.71c-56.83-.66-111.91-5.55-161.38-14.03,5.21-41.79,13.93-81.4,25.7-117.11Zm-31.35,208.88c0-22.08,.98-43.92,2.85-65.31,50.24,8.5,105.94,13.32,164.18,13.95v102.72c-58.24,.63-113.95,5.45-164.18,13.95-1.87-21.39-2.85-43.23-2.85-65.31Zm31.35,208.88c-11.77-35.7-20.49-75.32-25.7-117.1,49.47-8.48,104.55-13.37,161.38-14.03v102.71c-46.88,1.52-92.69,11.17-135.68,28.43Zm297.73,0c-42.99-17.26-88.8-26.9-135.68-28.43v-102.71c56.83,.66,111.91,5.55,161.38,14.03-5.21,41.79-13.93,81.4-25.7,117.11Z"/>
</svg>